<svg width="16" height="15" viewBox="0 0 16 15" fill="none" xmlns="http://www.w3.org/2000/svg">
<g clip-path="url(#clip0_328_287)">
<path d="M12.81 0H2.55C1.14167 0 0 1.14167 0 2.55V12.426C0 13.8343 1.14167 14.976 2.55 14.976H12.81C14.2183 14.976 15.36 13.8343 15.36 12.426V2.55C15.36 1.14167 14.2183 0 12.81 0Z" fill="#330000"/>
<path d="M7.44319 8.98737H5.06299L4.57867 10.4917C4.57208 10.5192 4.55613 10.5435 4.53355 10.5604C4.51098 10.5773 4.4832 10.5859 4.45501 10.5845H3.24943C3.18073 10.5845 3.15667 10.5467 3.17731 10.4711L5.23813 4.53603C5.25871 4.47423 5.27935 4.40385 5.29993 4.32483C5.32693 4.18731 5.34073 4.04763 5.34115 3.90753C5.33975 3.89773 5.34065 3.88773 5.34378 3.87834C5.3469 3.86895 5.35218 3.86041 5.35917 3.85341C5.36617 3.84641 5.3747 3.84113 5.38409 3.83799C5.39348 3.83486 5.40347 3.83395 5.41327 3.83535H7.05163C7.09963 3.83535 7.12711 3.85257 7.13407 3.88695L9.47305 10.4814C9.49369 10.5502 9.47305 10.5846 9.41125 10.5845H8.07169C8.04869 10.5871 8.02555 10.5811 8.00659 10.5679C7.98762 10.5546 7.97415 10.5349 7.96867 10.5124L7.44319 8.98737ZM5.43391 7.68909H7.06195L7.03873 7.61247L7.00147 7.49115L6.97489 7.40595L6.93247 7.27179L6.84229 6.98937L6.76297 6.73899L6.55699 6.08679C6.50573 5.92466 6.45652 5.76188 6.40939 5.59851L6.37171 5.46591L6.32767 5.30913L6.26047 5.06613L6.24787 5.02035H6.23761C6.18606 5.26767 6.12327 5.51253 6.04945 5.75415L5.89657 6.24591L5.81245 6.51759L5.72755 6.79263C5.71219 6.84231 5.69695 6.89145 5.68165 6.93999L5.63605 7.08387L5.59069 7.22439L5.54557 7.36143L5.50069 7.49505C5.48581 7.53903 5.47093 7.58241 5.45611 7.62525L5.43391 7.68909ZM10.864 4.92759C10.7589 4.93181 10.6541 4.9138 10.5564 4.87473C10.4588 4.83567 10.3705 4.77644 10.2973 4.70091C10.2243 4.62209 10.1676 4.52963 10.1304 4.42884C10.0933 4.32804 10.0764 4.2209 10.0809 4.11357C10.0771 4.00731 10.0958 3.90147 10.1358 3.80294C10.1757 3.70441 10.236 3.61542 10.3127 3.54177C10.4606 3.39978 10.6576 3.32033 10.8626 3.31995L10.8846 3.32019C11.1319 3.32019 11.326 3.39399 11.4668 3.54171C11.5379 3.61846 11.5931 3.70847 11.6293 3.8066C11.6656 3.90473 11.6821 4.00904 11.678 4.11357C11.6823 4.22132 11.6649 4.32885 11.6269 4.42976C11.5888 4.53067 11.5309 4.6229 11.4565 4.70097C11.3814 4.77501 11.2922 4.83327 11.1942 4.87232C11.0962 4.91137 10.9914 4.93043 10.886 4.92837L10.864 4.92759ZM10.153 10.4814V5.55615C10.153 5.49435 10.1803 5.46339 10.2354 5.46339H11.5029C11.5578 5.46339 11.5852 5.49429 11.5853 5.55615V10.4814C11.5853 10.5502 11.5578 10.5846 11.5029 10.5845H10.2457C10.1872 10.5845 10.1563 10.5537 10.1533 10.492L10.153 10.4814Z" fill="#FF9A00"/>
</g>
<defs>
<clipPath id="clip0_328_287">
<rect width="15.36" height="15" fill="white"/>
</clipPath>
</defs>
</svg>
