<svg width="15" height="15" viewBox="0 0 15 15" fill="none" xmlns="http://www.w3.org/2000/svg">
<g clip-path="url(#clip0_328_277)">
<path d="M6.86918 0.313159L0.313589 6.86324C0.229784 6.94676 0.16329 7.04601 0.11792 7.15528C0.0725492 7.26456 0.0491943 7.38171 0.0491943 7.50003C0.0491943 7.61835 0.0725492 7.73551 0.11792 7.84479C0.16329 7.95406 0.229784 8.05331 0.313589 8.13683L6.86918 14.6869C6.9528 14.7706 7.0521 14.837 7.16139 14.8823C7.27069 14.9276 7.38784 14.9509 7.50615 14.9509C7.62446 14.9509 7.74161 14.9276 7.8509 14.8823C7.9602 14.837 8.0595 14.7706 8.14312 14.6869L10.892 11.9404C10.967 11.8654 11.0265 11.7764 11.0671 11.6784C11.1077 11.5804 11.1285 11.4754 11.1285 11.3693C11.1285 11.2633 11.1077 11.1583 11.0671 11.0603C11.0265 10.9623 10.967 10.8733 10.892 10.7983C10.7404 10.6468 10.5348 10.5617 10.3205 10.5617C10.1061 10.5617 9.90056 10.6468 9.74894 10.7983L7.66535 12.8801C7.57746 12.968 7.4441 12.968 7.35668 12.8801L2.12132 7.64968C2.03378 7.56179 2.03378 7.42867 2.12132 7.34125L7.35668 2.11035C7.4441 2.02292 7.57734 2.02292 7.66523 2.11035L9.74894 4.19218C9.90056 4.34368 10.1061 4.42878 10.3205 4.42878C10.5348 4.42878 10.7404 4.34368 10.892 4.19218C10.967 4.11719 11.0265 4.02817 11.0671 3.93018C11.1077 3.8322 11.1285 3.72718 11.1285 3.62113C11.1285 3.51507 11.1077 3.41005 11.0671 3.31207C11.0265 3.21409 10.967 3.12506 10.892 3.05007L8.14359 0.304018C7.78968 -0.0402786 7.22027 -0.0374661 6.86918 0.313159Z" fill="url(#paint0_linear_328_277)"/>
<path d="M6.86918 0.313159L0.313589 6.86324C0.229784 6.94676 0.16329 7.04601 0.11792 7.15528C0.0725492 7.26456 0.0491943 7.38171 0.0491943 7.50003C0.0491943 7.61835 0.0725492 7.73551 0.11792 7.84479C0.16329 7.95406 0.229784 8.05331 0.313589 8.13683L6.86918 14.6869C6.9528 14.7706 7.0521 14.837 7.16139 14.8823C7.27069 14.9276 7.38784 14.9509 7.50615 14.9509C7.62446 14.9509 7.74161 14.9276 7.8509 14.8823C7.9602 14.837 8.0595 14.7706 8.14312 14.6869L10.892 11.9404C10.967 11.8654 11.0265 11.7764 11.0671 11.6784C11.1077 11.5804 11.1285 11.4754 11.1285 11.3693C11.1285 11.2633 11.1077 11.1583 11.0671 11.0603C11.0265 10.9623 10.967 10.8733 10.892 10.7983C10.7404 10.6468 10.5348 10.5617 10.3205 10.5617C10.1061 10.5617 9.90056 10.6468 9.74894 10.7983L7.66535 12.8801C7.57746 12.968 7.4441 12.968 7.35668 12.8801L2.12132 7.64968C2.03378 7.56179 2.03378 7.42867 2.12132 7.34125L7.35668 2.11035C7.57511 1.92214 7.93125 1.54082 8.45484 1.45164C8.84355 1.38519 9.26882 1.53132 9.73019 1.88921C9.42164 1.58066 8.893 1.05249 8.14359 0.304018C7.78968 -0.0402786 7.22027 -0.0374661 6.86918 0.313159Z" fill="url(#paint1_linear_328_277)"/>
<path d="M11.5265 10.1889C11.6781 10.3403 11.8837 10.4254 12.098 10.4254C12.3123 10.4254 12.5178 10.3403 12.6695 10.1889L14.6969 8.16328C14.7807 8.07981 14.8472 7.98061 14.8925 7.87138C14.9379 7.76216 14.9613 7.64505 14.9613 7.52678C14.9613 7.40851 14.9379 7.2914 14.8925 7.18217C14.8472 7.07294 14.7807 6.97375 14.6969 6.89027L12.6516 4.85367C12.4996 4.70236 12.2938 4.61753 12.0794 4.6178C11.8649 4.61806 11.6593 4.7034 11.5077 4.85508C11.4326 4.93001 11.373 5.01902 11.3323 5.11701C11.2917 5.215 11.2708 5.32005 11.2708 5.42613C11.2708 5.53222 11.2917 5.63727 11.3323 5.73526C11.373 5.83325 11.4326 5.92225 11.5077 5.99719L12.8893 7.37731C12.91 7.39727 12.9265 7.42119 12.9377 7.44766C12.949 7.47413 12.9548 7.50259 12.9548 7.53135C12.9548 7.56011 12.949 7.58857 12.9377 7.61504C12.9265 7.6415 12.91 7.66543 12.8893 7.68539L11.5264 9.04723C11.4513 9.12212 11.3918 9.21109 11.3511 9.30904C11.3105 9.40699 11.2895 9.512 11.2895 9.61805C11.2895 9.7241 11.3105 9.8291 11.3511 9.92705C11.3918 10.025 11.4514 10.114 11.5265 10.1889Z" fill="url(#paint2_linear_328_277)"/>
<path fill-rule="evenodd" clip-rule="evenodd" d="M9.30915 7.53299C9.30915 6.55611 8.51673 5.76416 7.53892 5.76416C6.56157 5.76416 5.7688 6.55611 5.7688 7.53299C5.7688 8.50939 6.56157 9.30135 7.53892 9.30135C8.51673 9.30135 9.30915 8.50939 9.30915 7.53299Z" fill="url(#paint3_linear_328_277)"/>
</g>
<defs>
<linearGradient id="paint0_linear_328_277" x1="6.9292" y1="0.047612" x2="13.161" y2="3.85641" gradientUnits="userSpaceOnUse">
<stop stop-color="#4285EB"/>
<stop offset="1" stop-color="#2EC7FF"/>
</linearGradient>
<linearGradient id="paint1_linear_328_277" x1="7.76014" y1="0.0476121" x2="4.68335" y2="15.9565" gradientUnits="userSpaceOnUse">
<stop stop-color="#29CDFF"/>
<stop offset="0.379" stop-color="#148EFF"/>
<stop offset="1" stop-color="#0A60FF"/>
</linearGradient>
<linearGradient id="paint2_linear_328_277" x1="13.8429" y1="3.86243" x2="9.83743" y2="10.1247" gradientUnits="userSpaceOnUse">
<stop stop-color="#FA816E"/>
<stop offset="0.415" stop-color="#F74A5C"/>
<stop offset="1" stop-color="#F51D2C"/>
</linearGradient>
<linearGradient id="paint3_linear_328_277" x1="8.17977" y1="4.50152" x2="6.84734" y2="9.82902" gradientUnits="userSpaceOnUse">
<stop stop-color="#FA8E7D"/>
<stop offset="0.513" stop-color="#F74A5C"/>
<stop offset="1" stop-color="#F51D2C"/>
</linearGradient>
<clipPath id="clip0_328_277">
<rect width="15" height="15" fill="white"/>
</clipPath>
</defs>
</svg>
