<svg width="15" height="15" viewBox="0 0 15 15" fill="none" xmlns="http://www.w3.org/2000/svg">
<path d="M13.5937 4.79625C13.5982 4.59191 13.5466 4.39024 13.4446 4.21313C13.3376 4.03924 13.1862 3.89701 13.0059 3.8011C11.3828 2.90485 9.75885 2.00907 8.13417 1.11375C7.93828 0.99591 7.71359 0.934585 7.485 0.93657C7.2564 0.938556 7.03282 1.00377 6.83901 1.125C6.19307 1.49016 2.9601 3.26485 1.99635 3.79969C1.81295 3.89181 1.65985 4.03465 1.55524 4.21122C1.45063 4.38779 1.3989 4.59068 1.4062 4.79578V10.2047C1.40146 10.4044 1.45 10.6018 1.54682 10.7766C1.65447 10.9555 1.80915 11.1014 1.99401 11.1984C2.95776 11.7333 6.1912 13.508 6.83713 13.8731C7.03086 13.9945 7.2544 14.0599 7.48299 14.062C7.71159 14.0642 7.93632 14.003 8.13229 13.8853C9.75417 12.9881 11.377 12.0923 13.0007 11.198C13.1856 11.1008 13.3404 10.9549 13.4484 10.7761C13.5452 10.6013 13.5937 10.404 13.589 10.2042V4.79625" fill="#659AD2"/>
<path d="M13.3823 10.8615C13.4069 10.8343 13.4299 10.8058 13.4512 10.7762C13.5481 10.6014 13.5966 10.404 13.5919 10.2043V4.79631C13.5964 4.59197 13.5448 4.3903 13.4428 4.21318C13.4259 4.18553 13.4011 4.16396 13.3819 4.13818L7.5 7.50006L13.3823 10.8615Z" fill="#00599C"/>
<path d="M13.3824 10.8614L7.50002 7.5L1.61768 10.8614C1.71714 11.0009 1.84676 11.1163 1.99689 11.1989C2.96064 11.7338 6.19408 13.5084 6.84002 13.8736C7.03374 13.995 7.25728 14.0603 7.48588 14.0625C7.71447 14.0646 7.9392 14.0035 8.13518 13.8858C9.75705 12.9886 11.3799 12.0928 13.0036 11.1984C13.1536 11.116 13.283 11.0008 13.3824 10.8614Z" fill="#004482"/>
<path d="M9.1875 8.44692C8.97869 8.81826 8.65298 9.11016 8.26107 9.27718C7.86915 9.44421 7.43302 9.47699 7.02054 9.37042C6.60806 9.26386 6.24238 9.02393 5.9804 8.68797C5.71843 8.35202 5.57487 7.93889 5.57205 7.51287C5.56924 7.08686 5.70733 6.67187 5.96484 6.33248C6.22235 5.99309 6.58483 5.74835 6.99587 5.63635C7.4069 5.52435 7.84344 5.55136 8.23752 5.71319C8.63161 5.87502 8.96115 6.16259 9.17485 6.53114L10.8694 5.55942C10.4393 4.82128 9.77838 4.24503 8.98854 3.91944C8.1987 3.59385 7.32372 3.53698 6.49838 3.7576C5.67304 3.97821 4.94313 4.46407 4.42108 5.14033C3.89904 5.8166 3.61383 6.64574 3.60938 7.50005C3.60853 8.17748 3.78639 8.84315 4.125 9.42989C4.46789 10.0225 4.96077 10.5144 5.55408 10.8561C6.14739 11.1978 6.82021 11.3773 7.50488 11.3765C8.18956 11.3757 8.86195 11.1946 9.45445 10.8515C10.047 10.5084 10.5387 10.0154 10.8802 9.42192L9.1875 8.44692Z" fill="white"/>
<path d="M11.2856 7.2834H10.8515V6.85168H10.4179V7.2834H9.98389V7.71606H10.4179V8.14731H10.8515V7.71606H11.2856V7.2834ZM12.9136 7.2834H12.4795V6.85168H12.0454V7.2834H11.6114V7.71606H12.0454V8.14731H12.4795V7.71606H12.9136V7.2834Z" fill="white"/>
</svg>
