<svg width="15" height="15" viewBox="0 0 15 15" fill="none" xmlns="http://www.w3.org/2000/svg">
<g clip-path="url(#clip0_328_302)">
<path d="M11.4844 0H3.51562C1.574 0 0 1.574 0 3.51562V11.4844C0 13.426 1.574 15 3.51562 15H11.4844C13.426 15 15 13.426 15 11.4844V3.51562C15 1.574 13.426 0 11.4844 0Z" fill="#242938"/>
<mask id="mask0_328_302" style="mask-type:luminance" maskUnits="userSpaceOnUse" x="3" y="1" width="9" height="13">
<path d="M3.57422 1.64062H11.3883V13.3594H3.57422V1.64062Z" fill="white"/>
</mask>
<g mask="url(#mask0_328_302)">
<path d="M5.52812 13.3594C6.60624 13.3594 7.48122 12.4844 7.48122 11.4063V9.45312H5.52812C4.44999 9.45312 3.57495 10.3282 3.57495 11.4063C3.57495 12.4844 4.44999 13.3594 5.52812 13.3594Z" fill="#0ACF83"/>
<path d="M3.57495 7.49998C3.57495 6.42186 4.44999 5.54688 5.52812 5.54688H7.48122V9.45309H5.52812C4.44999 9.45309 3.57495 8.57811 3.57495 7.49998Z" fill="#A259FF"/>
<path d="M3.57495 3.59373C3.57495 2.51561 4.44999 1.64062 5.52812 1.64062H7.48122V5.54689H5.52812C4.44999 5.54689 3.57495 4.67186 3.57495 3.59373Z" fill="#F24E1E"/>
<path d="M7.4812 1.64062H9.43431C10.5124 1.64062 11.3875 2.51561 11.3875 3.59373C11.3875 4.67186 10.5124 5.54689 9.43431 5.54689H7.4812V1.64062Z" fill="#FF7262"/>
<path d="M11.3875 7.49998C11.3875 8.57811 10.5124 9.45309 9.43431 9.45309C8.35618 9.45309 7.4812 8.57811 7.4812 7.49998C7.4812 6.42186 8.35618 5.54688 9.43431 5.54688C10.5124 5.54688 11.3875 6.42186 11.3875 7.49998Z" fill="#1ABCFE"/>
</g>
</g>
<defs>
<clipPath id="clip0_328_302">
<rect width="15" height="15" fill="white"/>
</clipPath>
</defs>
</svg>
