<svg width="15" height="15" viewBox="0 0 15 15" fill="none" xmlns="http://www.w3.org/2000/svg">
<g clip-path="url(#clip0_328_253)">
<path d="M0.165039 0.165039H14.835V14.8352H0.165039V0.165039Z" fill="#F0DB4F"/>
<path d="M13.6345 11.3362C13.527 10.6669 13.0906 10.1048 11.7979 9.58061C11.3488 9.37424 10.8482 9.22647 10.699 8.88616C10.6461 8.68811 10.639 8.57655 10.6725 8.45667C10.7688 8.0676 11.2332 7.94631 11.6013 8.05788C11.8383 8.13733 12.0627 8.32003 12.1981 8.61147C12.8311 8.20155 12.8299 8.20424 13.2719 7.92253C13.11 7.67163 13.0237 7.55585 12.9177 7.4485C12.537 7.02323 12.0182 6.80421 11.1885 6.82096L10.7563 6.87686C10.3422 6.98151 9.94751 7.19889 9.71606 7.49034C9.02161 8.27831 9.21966 9.65737 10.0647 10.2249C10.8972 10.8498 12.1202 10.9919 12.2764 11.5762C12.4284 12.2915 11.7507 12.5231 11.0771 12.4408C10.5807 12.3376 10.3046 12.0853 10.0061 11.6265C9.45673 11.9444 9.45673 11.9444 8.89188 12.2692C9.02583 12.5621 9.16657 12.6946 9.3911 12.9483C10.4538 14.0262 13.113 13.9733 13.5899 12.3418C13.6093 12.2858 13.7377 11.9122 13.6345 11.3362ZM8.14013 6.90733H6.76798L6.76235 10.4548C6.76235 11.2093 6.80138 11.9009 6.67868 12.1129C6.47794 12.5299 5.95774 12.4782 5.72067 12.3973C5.47938 12.2787 5.35669 12.1101 5.21454 11.8717C5.17552 11.8033 5.14622 11.7503 5.13638 11.7462L4.02075 12.4294C4.20626 12.8102 4.47954 13.1407 4.82958 13.3553C5.35247 13.6692 6.05524 13.7654 6.79024 13.5966C7.2686 13.4573 7.68134 13.1687 7.89743 12.7293C8.20985 12.1533 8.14282 11.4562 8.14001 10.6851C8.14704 9.4271 8.14013 8.16932 8.14013 6.90733Z" fill="#323330"/>
</g>
<defs>
<clipPath id="clip0_328_253">
<rect width="15" height="15" fill="white"/>
</clipPath>
</defs>
</svg>
