<svg width="15" height="15" viewBox="0 0 15 15" fill="none" xmlns="http://www.w3.org/2000/svg">
<g clip-path="url(#clip0_328_269)">
<path d="M11.4844 0H3.51562C1.574 0 0 1.574 0 3.51562V11.4844C0 13.426 1.574 15 3.51562 15H11.4844C13.426 15 15 13.426 15 11.4844V3.51562C15 1.574 13.426 0 11.4844 0Z" fill="#F4F2ED"/>
<path d="M7.11621 1.64384C7.09102 1.64612 7.0108 1.65415 6.93861 1.65983C5.2742 1.80989 3.71514 2.70802 2.72766 4.08837C2.17787 4.85589 1.82613 5.72647 1.6933 6.64868C1.64637 6.9706 1.64062 7.06569 1.64062 7.5021C1.64062 7.93856 1.64637 8.03366 1.69336 8.35552C2.01176 10.5561 3.57773 12.405 5.70152 13.09C6.08186 13.2126 6.48275 13.2962 6.93867 13.3466C7.11627 13.366 7.88373 13.366 8.06133 13.3466C8.8483 13.2595 9.51498 13.0648 10.1725 12.7291C10.2733 12.6776 10.2928 12.6639 10.279 12.6524C10.2699 12.6455 9.84029 12.0693 9.32484 11.3729L8.38781 10.1071L7.21359 8.36929C6.56754 7.41392 6.03603 6.63263 6.03141 6.63263C6.02684 6.63151 6.02227 7.4036 6.01998 8.34638C6.01652 9.99708 6.01541 10.0635 5.99478 10.1024C5.96502 10.1586 5.94211 10.1815 5.89395 10.2067C5.85732 10.225 5.82522 10.2285 5.65225 10.2285H5.45408L5.40135 10.1952C5.3687 10.1748 5.34218 10.1459 5.32459 10.1116L5.30057 10.0601L5.30291 7.76331L5.30631 5.46538L5.34182 5.42067C5.36016 5.39665 5.39912 5.36571 5.4266 5.35083C5.47354 5.32792 5.49188 5.32563 5.69004 5.32563C5.92377 5.32563 5.96268 5.33478 6.02344 5.40122C6.04061 5.41956 6.67635 6.37722 7.43701 7.53075C8.20709 8.69835 8.97764 9.86563 9.74865 11.0326L10.6765 12.4382L10.7235 12.4073C11.1393 12.1369 11.5792 11.752 11.9275 11.3511C12.6686 10.4999 13.1463 9.46212 13.3067 8.35552C13.3536 8.03366 13.3594 7.93856 13.3594 7.5021C13.3594 7.06569 13.3536 6.9706 13.3067 6.64868C12.9882 4.44813 11.4223 2.59927 9.29848 1.91425C8.92389 1.79278 8.52527 1.70917 8.0785 1.65878C7.96852 1.64729 7.21131 1.63476 7.11627 1.6439L7.11621 1.64384ZM9.51492 5.18812C9.56988 5.2156 9.61459 5.26827 9.63064 5.32323C9.63979 5.35306 9.64207 5.98997 9.63979 7.42528L9.63633 9.48497L9.27322 8.92821L8.90895 8.37151V6.87433C8.90895 5.90636 8.91352 5.3622 8.92037 5.33583C8.93871 5.27173 8.97879 5.22134 9.03381 5.19151C9.08074 5.16749 9.09797 5.16515 9.27779 5.16515C9.44736 5.16515 9.47713 5.16749 9.51492 5.18812Z" fill="black"/>
</g>
<defs>
<clipPath id="clip0_328_269">
<rect width="15" height="15" fill="white"/>
</clipPath>
</defs>
</svg>
