<svg width="15" height="15" viewBox="0 0 15 15" fill="none" xmlns="http://www.w3.org/2000/svg">
<path d="M13.8314 8.79979C13.7919 8.68459 13.7205 8.58293 13.6256 8.50654C13.5307 8.43015 13.4162 8.38215 13.2952 8.36807C13.1522 8.35088 13.0074 8.35898 12.8672 8.39198C12.6504 8.43986 12.4299 8.46888 12.2082 8.4787C12.8012 7.47811 13.2542 6.40088 13.5544 5.27714C14.0011 3.54792 13.7625 2.76042 13.4836 2.4037C13.1132 1.93511 12.6392 1.55882 12.0988 1.3044C11.5584 1.04998 10.9664 0.924375 10.3692 0.937449C9.82144 0.932316 9.27593 1.00878 8.75065 1.16432C8.43779 1.11068 8.12118 1.08184 7.80378 1.07807C7.22685 1.05617 6.6554 1.197 6.15471 1.48448C5.77501 1.3561 5.38564 1.25829 4.99034 1.19198C4.52952 1.08143 4.05144 1.06278 3.58341 1.1371C3.11538 1.21142 2.66659 1.37725 2.26268 1.62511C1.44987 2.19886 1.07299 3.19635 1.14284 4.58995C1.26789 5.62959 1.48851 6.65549 1.8019 7.65464C1.98239 8.27873 2.21995 8.88488 2.51159 9.46542C2.72697 9.995 3.13641 10.4224 3.65628 10.6603C3.84684 10.723 4.05072 10.7337 4.2468 10.6912C4.44287 10.6487 4.62401 10.5545 4.77143 10.4184C4.83834 10.4976 4.91746 10.5657 5.00581 10.6199C5.14274 10.7049 5.29201 10.7682 5.44831 10.8074C5.95992 10.95 6.50452 10.9169 6.99518 10.7137C6.998 10.7939 7.00034 10.8707 7.00175 10.9373C7.00456 11.0446 7.00784 11.1501 7.01159 11.249C7.00602 11.7719 7.07564 12.2928 7.21831 12.7959C7.22581 12.816 7.23565 12.846 7.24596 12.8784C7.3283 13.1863 7.48824 13.4679 7.71049 13.6964C7.97696 13.941 8.32859 14.0718 8.69018 14.0606C8.8442 14.0596 8.9977 14.0425 9.14815 14.0095C9.43336 13.9737 9.7085 13.8811 9.95735 13.7372C10.2062 13.5934 10.4237 13.4011 10.5971 13.1718C10.9772 12.6304 11.1624 11.8153 11.1957 10.5304L11.2078 10.4264L11.2158 10.3584L11.3053 10.3664H11.3283C11.8352 10.3878 12.3408 10.3002 12.811 10.1095C13.1067 9.97214 14.055 9.47151 13.8314 8.79698" fill="black"/>
<path d="M12.9792 8.93113C11.4966 9.23675 11.3949 8.73519 11.3949 8.73519C12.96 6.41253 13.6144 3.4641 13.0496 2.74269C11.5092 0.773939 8.84253 1.70535 8.798 1.72925L8.78347 1.73206C8.45775 1.66669 8.1266 1.63217 7.7944 1.62894C7.23419 1.60083 6.68137 1.76635 6.22878 2.09769C6.22878 2.09769 1.4719 0.137845 1.69315 4.56238C1.74003 5.50363 3.04222 11.6846 4.59519 9.81753C5.16284 9.13503 5.71128 8.55753 5.71128 8.55753C5.98749 8.74396 6.31982 8.82878 6.65159 8.79753L6.67831 8.77503C6.67047 8.86372 6.67409 8.95305 6.68909 9.04081C6.28878 9.488 6.40784 9.56628 5.60675 9.73081C4.79769 9.89769 5.273 10.1944 5.58331 10.2722C5.91301 10.3789 6.26798 10.3786 6.59754 10.2716C6.9271 10.1645 7.21442 9.95604 7.41847 9.67597L7.39503 9.76972C7.55159 9.89535 7.66175 10.5863 7.64347 11.213C7.59234 11.6791 7.62408 12.1506 7.73722 12.6057C7.86097 12.9418 7.98378 13.6974 9.03519 13.4724C9.40906 13.4354 9.7568 13.264 10.0137 12.9899C10.2707 12.7158 10.4193 12.3577 10.4321 11.9822C10.4789 11.4038 10.5788 11.4891 10.5849 10.9721L10.6664 10.7274C10.7602 9.94316 10.6814 9.69003 11.2224 9.80769L11.3541 9.81941C11.7726 9.83699 12.1902 9.76673 12.5799 9.61316C13.2389 9.30753 13.6294 8.7966 12.9797 8.93113" fill="#336791"/>
<path d="M6.50722 4.98323C6.39969 4.9606 6.28761 4.97723 6.19128 5.0301C6.17873 5.03914 6.16812 5.0506 6.16007 5.0638C6.15202 5.077 6.14669 5.09168 6.14441 5.10698C6.14442 5.16104 6.16388 5.21329 6.19925 5.25417C6.26215 5.34054 6.35607 5.39918 6.46128 5.41776C6.47526 5.41969 6.48936 5.42063 6.50347 5.42057C6.57311 5.42148 6.64135 5.40097 6.69895 5.36181C6.75655 5.32266 6.80072 5.26676 6.8255 5.20167C6.84191 5.08542 6.67269 5.0076 6.50863 4.98464M10.9346 4.98839C10.9219 4.89698 10.7593 4.8712 10.6064 4.89464C10.4536 4.91807 10.3032 4.98557 10.3158 5.07698C10.3396 5.13432 10.38 5.18327 10.4318 5.21758C10.4835 5.25189 10.5443 5.27002 10.6064 5.26964C10.6195 5.26961 10.6325 5.26867 10.6453 5.26682C10.7266 5.25255 10.8009 5.21185 10.8568 5.15104C10.9034 5.11006 10.9319 5.05223 10.936 4.99026" fill="white"/>
<path d="M13.4724 8.89644C13.4157 8.72534 13.2338 8.6705 12.9314 8.73284C12.0338 8.92034 11.7127 8.78956 11.6068 8.71222C12.3176 7.62102 12.8512 6.42418 13.1878 5.16612C13.3241 4.66849 13.4027 4.15686 13.4222 3.64128C13.4583 3.28064 13.3745 2.91816 13.1836 2.61003C12.8458 2.18485 12.4138 1.84393 11.9218 1.61413C11.4297 1.38434 10.891 1.27194 10.3482 1.28581C9.79051 1.27709 9.23553 1.36446 8.70753 1.54409C8.40555 1.46958 8.09605 1.42979 7.78503 1.4255C7.22549 1.40091 6.67242 1.55329 6.20441 1.86097C5.78782 1.70866 5.35779 1.59597 4.92004 1.52441C4.08323 1.3219 3.20033 1.45749 2.46285 1.90175C1.75972 2.4005 1.4316 3.29206 1.49675 4.55159C1.61988 5.56105 1.83532 6.5571 2.14035 7.52722C2.64191 9.17019 3.18707 10.1007 3.76082 10.2928C3.83499 10.3178 3.91271 10.3306 3.99097 10.3308C4.13662 10.3218 4.2783 10.2797 4.40525 10.2077C4.5322 10.1358 4.64108 10.0358 4.72363 9.9155C5.04925 9.52487 5.38597 9.14394 5.73379 8.77269C5.95738 8.8937 6.20622 8.96064 6.46035 8.96816V8.98784C6.4166 9.03972 6.37394 9.09253 6.33238 9.14628C6.1566 9.36894 6.1205 9.41534 5.55519 9.53206C5.39441 9.56534 4.96738 9.65347 4.96128 9.95394C4.95472 10.2821 5.46613 10.4185 5.52379 10.433C5.71509 10.4822 5.91172 10.5077 6.10925 10.5089C6.54127 10.5169 6.96017 10.3604 7.28113 10.0711C7.2332 10.9632 7.29316 11.8578 7.45972 12.7355C7.53668 13.0165 7.70326 13.2647 7.93415 13.4423C8.16504 13.62 8.44761 13.7175 8.73894 13.7199C8.88347 13.7194 9.02755 13.7037 9.16878 13.673C9.55441 13.6397 9.91543 13.4697 10.1867 13.1936C10.458 12.9175 10.6216 12.5535 10.6482 12.1674C10.7311 11.6864 10.8736 10.5385 10.9407 9.92253C11.1101 9.96909 11.2853 9.99072 11.461 9.98675C11.8655 9.98967 12.2667 9.91323 12.6418 9.76175C12.9755 9.60659 13.5793 9.22691 13.4682 8.89644H13.4724ZM11.2739 4.73441C11.2679 4.90843 11.2498 5.08182 11.2196 5.25331C11.1847 5.45483 11.1628 5.65837 11.1539 5.86269C11.1524 6.09322 11.168 6.32355 11.2008 6.55175C11.3021 7.01881 11.2648 7.50528 11.0935 7.95144C11.0571 7.88691 11.0247 7.82023 10.9964 7.75175C10.9693 7.68566 10.9097 7.57925 10.8282 7.43253C10.5094 6.86066 9.76222 5.52097 10.1447 4.97441C10.2586 4.81175 10.5478 4.64628 11.2735 4.73441H11.2739ZM10.3941 1.65519C10.8739 1.64538 11.3495 1.74704 11.7833 1.95218C12.2172 2.15731 12.5975 2.46032 12.8944 2.83737C13.3514 3.42097 12.8475 6.07737 11.3921 8.36862L11.348 8.31284L11.3297 8.28987C11.6189 7.74347 11.703 7.11165 11.5669 6.50862C11.5356 6.29883 11.5199 6.087 11.52 5.87487C11.5285 5.68533 11.549 5.49651 11.5814 5.30956C11.6236 5.07874 11.6429 4.84433 11.6391 4.60972C11.6467 4.57749 11.6488 4.5442 11.6452 4.51128C11.4899 3.88359 11.182 3.30395 10.7489 2.82378C10.3598 2.36522 9.87309 1.99943 9.32441 1.75316C9.67579 1.67989 10.0343 1.64624 10.3932 1.65284L10.3941 1.65519ZM4.44332 9.68159C4.14941 10.035 3.94597 9.96753 3.88082 9.94503C3.44582 9.79972 2.9405 8.88003 2.49566 7.42128C2.20029 6.47968 1.99007 5.51345 1.86754 4.53425C1.81129 3.40925 2.0841 2.62456 2.67847 2.20269C3.6455 1.51691 5.23597 1.92753 5.87488 2.13566C5.8655 2.14456 5.85613 2.153 5.84722 2.16237C4.79863 3.22128 4.82347 5.03066 4.82628 5.14128C4.82628 5.18394 4.82957 5.24441 4.83472 5.32878C4.87316 5.83283 4.86044 6.33948 4.79675 6.84097C4.75317 7.12811 4.77556 7.4214 4.86222 7.6986C4.94888 7.9758 5.09754 8.22962 5.29691 8.44081C5.33847 8.48394 5.38191 8.52487 5.42722 8.56362C5.08853 8.92684 4.76027 9.29965 4.44285 9.68159H4.44332ZM5.56363 8.18628C5.40197 8.01537 5.28143 7.80984 5.21117 7.58533C5.1409 7.36081 5.12278 7.12323 5.15816 6.89066C5.22535 6.36512 5.23901 5.83411 5.19894 5.30581C5.19645 5.26786 5.19427 5.22989 5.19238 5.19191C5.58504 4.89597 6.07233 4.75376 6.56253 4.79206C6.67532 4.81762 6.77735 4.87766 6.85446 4.96384C6.93157 5.05003 6.97994 5.15808 6.99285 5.273C7.29566 6.67409 7.03269 7.25769 6.82175 7.72691C6.77816 7.82347 6.73691 7.91441 6.70222 8.00816L6.67503 8.08128C6.60767 8.25113 6.55007 8.4247 6.50253 8.60112C6.32631 8.59862 6.15241 8.56049 5.9913 8.48904C5.83018 8.41758 5.68519 8.31428 5.56503 8.18534L5.56363 8.18628ZM5.6166 10.0753C5.52962 10.0539 5.44679 10.0183 5.37144 9.96987C5.45523 9.93408 5.54283 9.90798 5.63253 9.89206C6.29722 9.75519 6.39988 9.65769 6.62441 9.37409C6.67597 9.30894 6.7341 9.23347 6.81472 9.14487C6.93472 9.01034 6.99003 9.03331 7.08941 9.07456C7.13655 9.10016 7.17787 9.13524 7.21079 9.17759C7.2437 9.21995 7.26749 9.26866 7.28066 9.32066C7.29376 9.35841 7.29845 9.39857 7.2944 9.43833C7.29035 9.47808 7.27766 9.51647 7.25722 9.55081C7.07551 9.80173 6.81836 9.98801 6.5233 10.0825C6.22823 10.1769 5.91071 10.1746 5.61707 10.0758L5.6166 10.0753ZM9.0966 13.3125C8.96505 13.3583 8.82533 13.3757 8.68656 13.3638C8.5478 13.3519 8.41311 13.3109 8.29128 13.2434C8.16946 13.1758 8.06324 13.0834 7.97956 12.9721C7.89588 12.8607 7.83663 12.733 7.80566 12.5972C7.64059 11.5349 7.59343 10.4576 7.66503 9.38487C7.66551 9.3652 7.66282 9.34557 7.65707 9.32675C7.65215 9.29032 7.64463 9.25429 7.63457 9.21894C7.6068 9.1135 7.55622 9.01544 7.4864 8.93169C7.41658 8.84794 7.32923 8.78054 7.2305 8.73425C7.11542 8.67719 6.98443 8.66067 6.85878 8.68737C6.9032 8.52481 6.95672 8.36487 7.0191 8.20831L7.04628 8.13472C7.07722 8.05175 7.11566 7.96597 7.15644 7.87503C7.37722 7.38425 7.68003 6.71159 7.35144 5.19284C7.33064 5.06365 7.28361 4.94009 7.21323 4.82978C7.14285 4.71947 7.05062 4.62474 6.94222 4.55144C6.83383 4.47814 6.71157 4.42782 6.58298 4.40358C6.4544 4.37934 6.32221 4.38169 6.19457 4.4105C5.88582 4.45055 5.58647 4.54431 5.31003 4.68753C5.27347 4.70628 5.23972 4.72409 5.20879 4.74144C5.24424 3.8897 5.56033 3.07359 6.10785 2.42019C6.32776 2.20498 6.59022 2.0381 6.8784 1.93025C7.16658 1.82241 7.47411 1.77598 7.78129 1.79394C8.30021 1.79844 8.81184 1.91676 9.28006 2.14054C9.74827 2.36433 10.1617 2.68812 10.4911 3.08909C10.8126 3.46453 11.0638 3.89485 11.2327 4.35941C10.5469 4.28956 10.0805 4.42503 9.84425 4.763C9.32863 5.498 10.1255 6.92487 10.508 7.61066C10.5783 7.73628 10.6388 7.84503 10.6575 7.89191C10.7585 8.12772 10.8946 8.34691 11.0611 8.54206C11.0972 8.58894 11.1324 8.63066 11.1586 8.66909C10.951 8.72909 10.5778 8.86737 10.6121 9.55972C10.5849 9.90659 10.3899 11.5308 10.2905 12.105C10.1597 12.863 9.88082 13.1457 9.09613 13.3139L9.0966 13.3125ZM12.4913 9.42753C12.2027 9.54202 11.8964 9.60546 11.5861 9.61503C11.3797 9.64544 11.1688 9.61835 10.9768 9.53675C10.9557 9.10597 11.1174 9.06097 11.2861 9.01316C11.3128 9.00566 11.3386 8.99815 11.3639 8.98972C11.3805 9.00307 11.3977 9.01559 11.4155 9.02722C11.715 9.22503 12.2499 9.24612 13.0046 9.0905H13.013C12.857 9.22921 12.6806 9.34304 12.4899 9.428L12.4913 9.42753Z" fill="white"/>
</svg>
