<svg width="15" height="15" viewBox="0 0 15 15" fill="none" xmlns="http://www.w3.org/2000/svg">
<g clip-path="url(#clip0_328_245)">
<path d="M11.4844 0H3.51562C1.574 0 0 1.574 0 3.51562V11.4844C0 13.426 1.574 15 3.51562 15H11.4844C13.426 15 15 13.426 15 11.4844V3.51562C15 1.574 13.426 0 11.4844 0Z" fill="#001E36"/>
<path d="M3.375 10.432V4.00076C3.375 3.95699 3.39375 3.93203 3.43752 3.93203C3.54375 3.93203 3.64377 3.93203 3.7875 3.92576C3.9375 3.91949 4.09377 3.91949 4.26252 3.91328C4.43127 3.90701 4.6125 3.90701 4.80627 3.90074C4.99998 3.89453 5.18748 3.89453 5.37498 3.89453C5.8875 3.89453 6.31248 3.95699 6.66252 4.08824C6.97626 4.1948 7.26235 4.36987 7.5 4.60076C7.70139 4.80282 7.85699 5.04581 7.95627 5.31326C8.05002 5.57576 8.1 5.84453 8.1 6.12578C8.1 6.66326 7.97502 7.10699 7.725 7.45703C7.47498 7.80701 7.125 8.06951 6.71877 8.21951C6.29373 8.37578 5.82498 8.43203 5.31252 8.43203C5.16252 8.43203 5.0625 8.43203 4.99998 8.42576C4.93752 8.41949 4.84998 8.41949 4.73127 8.41949V10.4257C4.73748 10.4695 4.70625 10.507 4.66248 10.5133H3.45C3.40002 10.5133 3.375 10.4883 3.375 10.432ZM4.73748 5.13824V7.23824C4.82502 7.24451 4.90623 7.25078 4.98123 7.25078H5.31252C5.55627 7.25078 5.80002 7.21328 6.03123 7.13828C6.23127 7.08203 6.40623 6.96326 6.54375 6.80699C6.675 6.65078 6.73752 6.43826 6.73752 6.16328C6.74339 5.96796 6.69351 5.77501 6.59373 5.60699C6.4875 5.44451 6.3375 5.31953 6.15627 5.25074C5.925 5.15699 5.67498 5.11949 5.41875 5.12576C5.25627 5.12576 5.11248 5.12576 4.99377 5.13203C4.86873 5.12576 4.78125 5.13203 4.73748 5.13824ZM12 6.85703C11.8125 6.75701 11.6125 6.68828 11.4 6.64451C11.1687 6.59453 10.9375 6.56324 10.7 6.56324C10.575 6.55703 10.4437 6.57578 10.325 6.60701C10.2438 6.62576 10.175 6.66953 10.1313 6.73199C10.1 6.78203 10.0812 6.84449 10.0812 6.90074C10.0812 6.95699 10.1062 7.01324 10.1437 7.06328C10.2 7.13201 10.275 7.18826 10.3563 7.23203C10.5012 7.30708 10.6492 7.37589 10.8 7.43828C11.1375 7.55078 11.4625 7.70699 11.7625 7.89449C11.9688 8.02574 12.1375 8.20076 12.2562 8.41328C12.3562 8.61326 12.4062 8.83199 12.4 9.05699C12.4062 9.35078 12.3187 9.64451 12.1563 9.88826C11.9819 10.1378 11.7387 10.331 11.4563 10.4445C11.15 10.5757 10.775 10.6445 10.325 10.6445C10.0375 10.6445 9.75627 10.6195 9.47502 10.5633C9.25459 10.5252 9.0402 10.4579 8.83752 10.3633C8.79375 10.3383 8.76252 10.2945 8.76873 10.2445V9.15701C8.76873 9.13826 8.775 9.11324 8.79375 9.10076C8.8125 9.08828 8.83125 9.09449 8.85 9.10703C9.09375 9.25076 9.34998 9.35078 9.62502 9.41324C9.8625 9.47576 10.1125 9.50699 10.3625 9.50699C10.6 9.50699 10.7688 9.47576 10.8813 9.41951C10.9812 9.37574 11.05 9.26951 11.05 9.15701C11.05 9.06953 11 8.98826 10.9 8.90699C10.8 8.82578 10.5937 8.73203 10.2875 8.61326C9.97332 8.50256 9.67497 8.35128 9.40002 8.16326C9.20417 8.02367 9.0419 7.84218 8.925 7.63199C8.82498 7.43201 8.775 7.21328 8.78127 6.99449C8.78127 6.72578 8.85627 6.46949 8.99373 6.23828C9.15 5.98826 9.38127 5.78828 9.64998 5.66324C9.94377 5.51324 10.3125 5.44451 10.7562 5.44451C11.0125 5.44451 11.275 5.46326 11.5313 5.50076C11.7188 5.52578 11.9 5.57576 12.0687 5.64449C12.0938 5.65076 12.1188 5.67578 12.1312 5.70074C12.1375 5.72576 12.1437 5.75078 12.1437 5.77574V6.79451C12.1437 6.81953 12.1312 6.84449 12.1125 6.85703C12.0562 6.86951 12.025 6.86951 12 6.85703Z" fill="#31A8FF"/>
</g>
<defs>
<clipPath id="clip0_328_245">
<rect width="15" height="15" fill="white"/>
</clipPath>
</defs>
</svg>
