<svg width="21" height="20" viewBox="0 0 21 20" fill="none" xmlns="http://www.w3.org/2000/svg">
<g clip-path="url(#clip0_62_2820)">
<path d="M9.95454 0.00561523C4.86968 0.00561523 5.18717 2.21071 5.18717 2.21071L5.19282 4.49526H10.0452V5.18114H3.26552C3.26552 5.18114 0.0117188 4.81212 0.0117188 9.94271C0.0117188 15.0735 2.85172 14.8915 2.85172 14.8915H4.54662V12.5106C4.54662 12.5106 4.45525 9.67064 7.34129 9.67064H12.154C12.154 9.67064 14.8579 9.71432 14.8579 7.05738V2.66428C14.8579 2.66428 15.2686 0.00561523 9.95454 0.00561523ZM7.27894 1.54193C7.3936 1.54183 7.50716 1.56433 7.61312 1.60817C7.71907 1.652 7.81535 1.7163 7.89643 1.79738C7.97751 1.87846 8.0418 1.97473 8.08564 2.08069C8.12947 2.18664 8.15198 2.3002 8.15188 2.41487C8.15198 2.52954 8.12947 2.6431 8.08564 2.74905C8.0418 2.85501 7.97751 2.95128 7.89643 3.03236C7.81535 3.11344 7.71907 3.17774 7.61312 3.22157C7.50716 3.26541 7.3936 3.28791 7.27894 3.28781C7.16427 3.28791 7.05071 3.26541 6.94475 3.22157C6.8388 3.17774 6.74252 3.11344 6.66144 3.03236C6.58036 2.95128 6.51607 2.85501 6.47223 2.74905C6.4284 2.6431 6.40589 2.52954 6.40599 2.41487C6.40589 2.3002 6.4284 2.18664 6.47223 2.08069C6.51607 1.97473 6.58036 1.87846 6.66144 1.79738C6.74252 1.7163 6.8388 1.652 6.94475 1.60817C7.05071 1.56433 7.16427 1.54183 7.27894 1.54193Z" fill="url(#paint0_linear_62_2820)"/>
<path d="M10.0993 19.9314C15.1841 19.9314 14.8667 17.7263 14.8667 17.7263L14.861 15.4418H10.0085V14.7559H16.7882C16.7882 14.7559 20.042 15.1249 20.042 9.99418C20.042 4.86352 17.202 5.04548 17.202 5.04548H15.5071V7.42626C15.5071 7.42626 15.5985 10.2663 12.7125 10.2663H7.89975C7.89975 10.2663 5.19583 10.2226 5.19583 12.8796V17.2728C5.19583 17.2728 4.78524 19.9314 10.0992 19.9314M12.7748 18.3952C12.6601 18.3953 12.5466 18.3728 12.4406 18.329C12.3347 18.2851 12.2384 18.2208 12.1573 18.1398C12.0762 18.0587 12.0119 17.9624 11.9681 17.8564C11.9243 17.7505 11.9018 17.6369 11.9019 17.5223C11.9018 17.4076 11.9243 17.294 11.9681 17.1881C12.0119 17.0821 12.0762 16.9858 12.1573 16.9047C12.2384 16.8236 12.3347 16.7593 12.4406 16.7155C12.5466 16.6716 12.6601 16.6491 12.7748 16.6492C12.8895 16.6491 13.003 16.6716 13.109 16.7155C13.215 16.7593 13.3112 16.8236 13.3923 16.9047C13.4734 16.9858 13.5377 17.082 13.5815 17.188C13.6253 17.294 13.6479 17.4075 13.6478 17.5222C13.6479 17.6368 13.6253 17.7504 13.5815 17.8564C13.5377 17.9623 13.4734 18.0586 13.3923 18.1397C13.3112 18.2208 13.215 18.2851 13.109 18.3289C13.003 18.3727 12.8895 18.3953 12.7748 18.3952Z" fill="url(#paint1_linear_62_2820)"/>
</g>
<defs>
<linearGradient id="paint0_linear_62_2820" x1="192.499" y1="179.226" x2="1185.12" y2="1161.95" gradientUnits="userSpaceOnUse">
<stop stop-color="#387EB8"/>
<stop offset="1" stop-color="#366994"/>
</linearGradient>
<linearGradient id="paint1_linear_62_2820" x1="289.307" y1="311.398" x2="1355.27" y2="1319.09" gradientUnits="userSpaceOnUse">
<stop stop-color="#FFE052"/>
<stop offset="1" stop-color="#FFC331"/>
</linearGradient>
<clipPath id="clip0_62_2820">
<rect width="20.08" height="20" fill="white"/>
</clipPath>
</defs>
</svg>
