<svg width="15" height="15" viewBox="0 0 15 15" fill="none" xmlns="http://www.w3.org/2000/svg">
<g clip-path="url(#clip0_328_262)">
<path d="M11.4844 0H3.51562C1.574 0 0 1.574 0 3.51562V11.4844C0 13.426 1.574 15 3.51562 15H11.4844C13.426 15 15 13.426 15 11.4844V3.51562C15 1.574 13.426 0 11.4844 0Z" fill="#242938"/>
<path d="M7.50011 8.61044C8.10386 8.61044 8.59323 8.12101 8.59323 7.51732C8.59323 6.91363 8.10386 6.42419 7.50011 6.42419C6.89642 6.42419 6.40698 6.91363 6.40698 7.51732C6.40698 8.12101 6.89642 8.61044 7.50011 8.61044Z" fill="#00D8FF"/>
<path d="M7.50012 5.29468C8.96777 5.29468 10.3312 5.50526 11.3592 5.85923C12.5978 6.28562 13.3594 6.93196 13.3594 7.51726C13.3594 8.12716 12.5523 8.81382 11.2222 9.2545C10.2166 9.58767 8.8933 9.76157 7.50012 9.76157C6.07172 9.76157 4.71908 9.59833 3.70213 9.25081C2.41553 8.81106 1.64062 8.11556 1.64062 7.51726C1.64062 6.93671 2.36777 6.29534 3.58898 5.8696C4.62082 5.50983 6.01787 5.29468 7.49988 5.29468H7.50012Z" stroke="#00D8FF" stroke-width="0.522129"/>
<path d="M5.56527 6.41238C6.29851 5.14101 7.16201 4.06512 7.9822 3.35144C8.97033 2.49146 9.91076 2.15467 10.4177 2.44699C10.946 2.75168 11.1377 3.79394 10.855 5.16633C10.6414 6.20385 10.1308 7.43701 9.4348 8.64392C8.72119 9.88131 7.9041 10.9715 7.09509 11.6786C6.0714 12.5735 5.08169 12.8973 4.56343 12.5984C4.06052 12.3086 3.86822 11.3582 4.10951 10.0876C4.31335 9.01394 4.82494 7.69623 5.56503 6.41238H5.56527Z" stroke="#00D8FF" stroke-width="0.522129"/>
<path d="M5.56709 8.64712C4.8318 7.37716 4.33117 6.0915 4.12223 5.0245C3.87068 3.7389 4.04851 2.75599 4.55506 2.46279C5.08293 2.15716 6.08154 2.51165 7.12932 3.442C7.9215 4.14536 8.73496 5.20339 9.43299 6.40913C10.1487 7.64534 10.685 8.89778 10.8937 9.95177C11.1577 11.2856 10.944 12.3047 10.4262 12.6044C9.92383 12.8953 9.00443 12.5874 8.0241 11.7437C7.19582 11.031 6.30965 9.92974 5.56709 8.64712Z" stroke="#00D8FF" stroke-width="0.522129"/>
</g>
<defs>
<clipPath id="clip0_328_262">
<rect width="15" height="15" fill="white"/>
</clipPath>
</defs>
</svg>
