<svg width="15" height="15" viewBox="0 0 15 15" fill="none" xmlns="http://www.w3.org/2000/svg">
<g clip-path="url(#clip0_328_273)">
<path d="M11.4844 0H3.51562C1.574 0 0 1.574 0 3.51562V11.4844C0 13.426 1.574 15 3.51562 15H11.4844C13.426 15 15 13.426 15 11.4844V3.51562C15 1.574 13.426 0 11.4844 0Z" fill="#242938"/>
<path fill-rule="evenodd" clip-rule="evenodd" d="M4.86328 6.44531C5.21484 5.03906 6.09381 4.33594 7.5 4.33594C9.60938 4.33594 9.87305 5.91797 10.9277 6.18164C11.6309 6.35748 12.2461 6.09381 12.7734 5.39062C12.4219 6.79682 11.5429 7.5 10.1367 7.5C8.02734 7.5 7.76367 5.91797 6.70898 5.6543C6.0058 5.47852 5.39062 5.74219 4.86328 6.44531ZM2.22656 9.60938C2.57812 8.20318 3.45703 7.5 4.86328 7.5C6.97266 7.5 7.23633 9.08203 8.29102 9.3457C8.9942 9.52154 9.60938 9.25787 10.1367 8.55469C9.78521 9.96088 8.90619 10.6641 7.5 10.6641C5.39062 10.6641 5.12695 9.08203 4.07227 8.81836C3.36914 8.64252 2.75391 8.90619 2.22656 9.60938Z" fill="url(#paint0_linear_328_273)"/>
</g>
<defs>
<linearGradient id="paint0_linear_328_273" x1="5.06836" y1="4.33594" x2="9.58008" y2="10.8691" gradientUnits="userSpaceOnUse">
<stop stop-color="#32B1C1"/>
<stop offset="1" stop-color="#14C6B7"/>
</linearGradient>
<clipPath id="clip0_328_273">
<rect width="15" height="15" fill="white"/>
</clipPath>
</defs>
</svg>
