<svg width="279" height="266" viewBox="0 0 279 266" fill="none" xmlns="http://www.w3.org/2000/svg">
<path d="M187.274 86.6589C178.937 72.8394 178.242 59.7472 186.926 45.9276L129.608 113.571M187.274 86.6589C193.527 96.8417 199.432 107.025 204.643 117.935M187.274 86.6589L187.916 86.2715C187.915 86.2707 187.915 86.27 187.915 86.2692C187.914 86.2683 187.913 86.2673 187.913 86.2664L187.274 86.6589ZM204.643 117.935C209.506 127.39 206.941 134.817 196.172 135.18C184.013 135.544 177.615 135.544 161.297 135.18C144.978 134.817 136.556 126.663 129.608 113.571M204.643 117.935L205.32 117.611C205.318 117.608 205.317 117.605 205.315 117.602C205.313 117.598 205.312 117.595 205.31 117.592L204.643 117.935ZM129.608 113.571L128.945 113.922C128.946 113.923 128.946 113.923 128.946 113.924L129.608 113.571ZM83.1014 30.6606C83.1016 30.661 83.1019 30.6614 83.1021 30.6618L83.7533 30.2897L83.1005 30.659C83.1008 30.6595 83.1011 30.6601 83.1014 30.6606ZM37.8816 0.854974C37.8872 0.854974 37.8929 0.854974 37.8986 0.854974V0.104974L37.8645 0.854198C37.8702 0.854457 37.8759 0.854715 37.8816 0.854974ZM11.8448 1.58232H11.8817C11.8938 1.58112 11.9059 1.57992 11.9181 1.57873L11.8448 0.832316V1.58232ZM54.1718 155.419C54.1723 155.418 54.173 155.417 54.1735 155.416C54.174 155.415 54.1744 155.414 54.1749 155.414L53.5309 155.029L54.1718 155.419ZM9.36606 235.051C9.36627 235.051 9.36649 235.051 9.36671 235.05L8.71834 234.673L9.36606 235.051ZM87.9987 173.274C87.9989 173.274 87.9992 173.275 87.9994 173.275C87.9999 173.276 88.0003 173.276 88.0007 173.277L88.6167 172.849L87.9987 173.274ZM80.5804 130.073C80.5773 130.073 80.5742 130.073 80.5711 130.074C80.568 130.074 80.5649 130.074 80.5618 130.075L80.6484 130.82L80.5804 130.073ZM204.944 250.298C204.943 250.297 204.943 250.296 204.942 250.294C204.941 250.293 204.94 250.292 204.94 250.29L204.296 250.675L204.944 250.298ZM218.989 263.752C218.985 263.751 218.982 263.751 218.978 263.75C218.974 263.75 218.969 263.749 218.965 263.749L218.886 264.494L218.989 263.752ZM270.615 264.473C270.613 264.473 270.611 264.473 270.609 264.473L270.646 265.222L270.615 264.473ZM223.402 114.298L222.751 113.925C222.751 113.926 222.75 113.926 222.75 113.927L223.402 114.298ZM224.075 0.854682C224.079 0.854783 224.082 0.854882 224.086 0.854984C224.089 0.854982 224.093 0.854982 224.096 0.854982V0.104982L224.075 0.854682ZM207.075 9.92412L207.731 10.2871C207.731 10.2866 207.732 10.2861 207.732 10.2855L207.075 9.92412ZM122.613 260.55L110.842 234.386C108.469 229.111 112.327 223.143 118.109 223.143H153.48C156.615 223.143 159.46 224.983 160.747 227.844L172.517 254.007C174.89 259.283 171.032 265.25 165.25 265.25H129.88C126.744 265.25 123.9 263.41 122.613 260.55Z" stroke="white" stroke-opacity="0.15" stroke-width="1.5"/>
</svg>
