<svg width="167" height="167" viewBox="0 0 167 167" fill="none" xmlns="http://www.w3.org/2000/svg">
<rect width="167" height="167" rx="83.5" fill="black"/>
<path d="M53.4014 44.0316C63.0161 44.4691 60.8214 41.9534 67.1964 53.1097C71.8992 61.4222 76.4975 69.7347 80.9913 78.1566C83.0814 82.0941 85.6153 84.5464 90.5246 84.6557C95.4338 84.7651 97.3586 84.7651 101.016 84.6557C104.256 84.5464 105.028 82.3128 103.565 79.4691C101.997 76.1878 100.221 73.1253 98.3395 70.0628C95.8313 65.9066 95.6223 61.9691 98.235 57.8128C100.361 53.1803 102.311 50.5941 104.296 46.9847C105.446 44.9066 107.118 44.0316 109.417 44.0316C113.284 44.1409 117.046 43.9222 120.913 44.0316C125.929 44.1409 126.974 46.1097 124.466 50.9222C123.003 53.8753 121.436 56.7191 119.763 59.5628C116.21 65.7972 112.761 72.1409 109.208 78.3753C107.014 82.2034 107.014 85.7034 109.208 89.6409C114.225 98.3909 119.032 107.141 123.944 116C124.571 117.094 125.198 118.188 125.616 119.391C126.452 121.688 125.616 123.657 123.421 123.766C118.196 123.985 112.97 124.094 107.85 123.547C106.282 123.328 104.505 121.141 103.46 119.391C98.7575 111.297 94.2637 103.094 89.7699 94.8909C82.6634 82.2034 85.3318 83.563 72.1639 83.3443C70.2828 83.3443 68.1434 83.1255 66.2623 83.3443C63.8586 83.563 63.2251 85.7034 64.2702 88.0003C65.5243 90.7347 66.9873 93.5784 68.6595 95.9847C72.4217 101.453 72.0037 106.485 68.764 112.172C62.18 123.766 62.389 123.657 49.5347 123.985C41.3831 124.203 40.2335 122.125 44.6228 114.578C49.2211 106.703 53.4014 98.5003 58.1042 90.6253C61.0304 85.8128 60.8214 81.7659 57.9997 77.0628C53.1924 69.0784 48.8031 60.7659 44.3093 52.6722C43.6823 51.5784 42.9507 50.4847 42.5327 49.3909C41.2786 46.2191 42.2192 44.5784 45.5634 44.2503C45.8769 44.2503 46.2949 44.2503 46.6085 44.2503C48.4896 44.0316 50.3707 44.0316 53.4014 44.0316Z" fill="white"/>
<path d="M78.8464 122.821L74.7447 113.706C74.1492 112.382 75.1173 110.885 76.5686 110.885H88.5757C89.3627 110.885 90.0765 111.347 90.3995 112.065L94.5012 121.179C95.0967 122.503 94.1286 124 92.6773 124H80.6702C79.8832 124 79.1693 123.538 78.8464 122.821Z" fill="white"/>
</svg>
