<svg width="34" height="33" viewBox="0 0 34 33" fill="none" xmlns="http://www.w3.org/2000/svg">
<path d="M4.7459 0.0127331C8.62369 0.189186 7.73854 -0.825419 10.3097 3.67413C12.2064 7.02674 14.061 10.3794 15.8735 13.7761C16.7165 15.3642 17.7385 16.3532 19.7185 16.3973C21.6985 16.4414 22.4748 16.4414 23.95 16.3973C25.2567 16.3532 25.568 15.4524 24.9779 14.3054C24.3456 12.982 23.6291 11.7469 22.8704 10.5117C21.8588 8.83539 21.7745 7.24731 22.8282 5.57101C23.6856 3.70262 24.4721 2.65953 25.2729 1.20379C25.7366 0.36564 26.411 0.0127341 27.3383 0.0127341C28.8978 0.0568475 30.4152 -0.031379 31.9748 0.0127343C33.998 0.0568477 34.4195 0.850887 33.4079 2.79187C32.8178 3.98293 32.1855 5.12987 31.5111 6.27682C30.078 8.79127 28.6871 11.3498 27.254 13.8643C26.3688 15.4083 26.3688 16.8199 27.254 18.408C29.2772 21.937 31.2161 25.4661 33.1971 29.0393C33.45 29.4804 33.7029 29.9215 33.8715 30.4068C34.2087 31.3332 33.8715 32.1272 32.9864 32.1713C30.8789 32.2595 28.7714 32.3036 26.706 32.0831C26.0738 31.9949 25.3572 31.1126 24.9357 30.4068C23.039 27.1424 21.2265 23.8339 19.4141 20.5254C16.5479 15.4083 17.6241 15.9566 12.3132 15.8684C11.5545 15.8684 10.6917 15.7802 9.93296 15.8684C8.96351 15.9566 8.70799 16.8199 9.12949 17.7463C9.63529 18.8491 10.2254 19.996 10.8998 20.9665C12.4172 23.1722 12.2486 25.2014 10.9419 27.4953C8.28649 32.1713 8.37079 32.1272 3.18635 32.2595C-0.101343 32.3478 -0.564992 31.5096 1.2053 28.4658C3.0599 25.2896 4.7459 21.9811 6.64265 18.805C7.82284 16.864 7.73854 15.2318 6.6005 13.3349C4.6616 10.1147 2.8913 6.76206 1.07886 3.49768C0.825958 3.05655 0.530903 2.61542 0.362305 2.17428C-0.143494 0.894999 0.235859 0.233299 1.58466 0.10096C1.71111 0.10096 1.8797 0.10096 2.00615 0.10096C2.76485 0.012733 3.52355 0.0127331 4.7459 0.0127331Z" fill="white"/>
</svg>
